<?xml version="1.0" encoding="UTF-8" standalone="no"?><!DOCTYPE svg PUBLIC "-//W3C//DTD SVG 1.1//EN" "http://www.w3.org/Graphics/SVG/1.1/DTD/svg11.dtd"><svg width="100%" height="100%" viewBox="0 0 17 17" version="1.1" xmlns="http://www.w3.org/2000/svg" xmlns:xlink="http://www.w3.org/1999/xlink" xml:space="preserve" xmlns:serif="http://www.serif.com/" style="fill-rule:evenodd;clip-rule:evenodd;stroke-linejoin:round;stroke-miterlimit:1.41421;"><path d="M8.388,1.049c4.047,0 7.339,3.292 7.339,7.339c0,4.047 -3.292,7.339 -7.339,7.339c-4.047,0 -7.339,-3.292 -7.339,-7.339c0,-4.047 3.292,-7.339 7.339,-7.339Zm0,-1.049c-4.632,0 -8.388,3.756 -8.388,8.388c0,4.632 3.756,8.388 8.388,8.388c4.632,0 8.388,-3.756 8.388,-8.388c0,-4.632 -3.756,-8.388 -8.388,-8.388Zm4.676,11.192l-0.047,-0.143c-0.11,-0.329 -0.475,-0.674 -0.811,-0.766l-1.24,-0.339c-0.336,-0.091 -0.815,0.032 -1.062,0.279l-0.448,0.448c-1.63,-0.441 -2.909,-1.72 -3.349,-3.35l0.448,-0.448c0.246,-0.246 0.369,-0.725 0.278,-1.062l-0.338,-1.24c-0.091,-0.336 -0.438,-0.701 -0.767,-0.811l-0.142,-0.047c-0.33,-0.111 -0.802,0.001 -1.048,0.247l-0.672,0.672c-0.119,0.119 -0.196,0.46 -0.196,0.461c-0.023,2.132 0.813,4.185 2.32,5.693c1.503,1.503 3.549,2.338 5.673,2.319c0.012,0 0.363,-0.075 0.483,-0.194l0.671,-0.672c0.246,-0.245 0.357,-0.717 0.247,-1.047Z" style="fill:#fff;fill-rule:nonzero;"/></svg>