<?xml version="1.0" encoding="iso-8859-1"?>
<!-- Generator: Adobe Illustrator 19.0.0, SVG Export Plug-In . SVG Version: 6.00 Build 0)  -->
<svg xmlns="http://www.w3.org/2000/svg" xmlns:xlink="http://www.w3.org/1999/xlink" version="1.1" id="Capa_1" x="0px" y="0px" viewBox="0 0 512.001 512.001" style="enable-background:new 0 0 512.001 512.001;" xml:space="preserve" width="512px" height="512px">
<g>
	<g>
		<g>
			<path d="M290.134,494.934h-68.267c-4.713,0-8.533,3.82-8.533,8.533s3.82,8.533,8.533,8.533h68.267     c4.713,0,8.533-3.82,8.533-8.533S294.847,494.934,290.134,494.934z" fill="#727377"/>
			<path d="M332.751,364.142c-0.748-20.865-9.969-40.524-25.534-54.441c-20.923-18.727-50.396-24.546-76.866-15.177     c-26.47,9.37-45.719,32.436-50.2,60.156h0c-3.841,23.763,3.711,47.949,20.392,65.304c8.285,8.697,12.871,20.271,12.792,32.283     c0.015,14.132,11.468,25.585,25.6,25.6h34.133c14.132-0.015,25.585-11.468,25.6-25.6c-0.159-11.889,4.332-23.371,12.517-31.996     C325.712,405.276,333.5,385.007,332.751,364.142z M298.934,408.397c-11.284,11.8-17.505,27.545-17.333,43.871     c-0.005,4.711-3.823,8.529-8.533,8.533h-34.133c-4.713-0.007-8.531-3.829-8.533-8.542c0.088-16.413-6.201-32.218-17.542-44.083     c-15.704-16.367-20.77-40.222-13.072-61.559s26.828-36.463,49.364-39.033c2.299-0.257,4.611-0.386,6.925-0.387v0     c14.682-0.046,28.854,5.381,39.75,15.22c12.108,10.817,19.283,26.102,19.869,42.328     C316.282,380.97,310.229,396.733,298.934,408.397z" fill="#727377"/>
			<path d="M401.067,51.201c-32.99,0-59.733,26.744-59.733,59.733s26.744,59.733,59.733,59.733s59.733-26.744,59.733-59.733     C460.762,77.96,434.041,51.239,401.067,51.201z M401.067,153.601c-23.564,0-42.667-19.103-42.667-42.667     s19.102-42.667,42.667-42.667c23.564,0,42.667,19.103,42.667,42.667C443.706,134.487,424.62,153.573,401.067,153.601z" fill="#727377"/>
			<path d="M497.967,85.334h-6.575c-2-7.018-4.811-13.778-8.375-20.146l4.667-4.671c5.475-5.483,5.475-14.363,0-19.846     l-16.35-16.354c-5.551-5.31-14.297-5.311-19.85-0.004l-4.675,4.671c-6.363-3.569-13.124-6.378-20.142-8.371v-6.579     c-0.008-7.747-6.286-14.026-14.033-14.033h-23.133c-7.747,0.008-14.026,6.286-14.033,14.033v6.579     c-7.018,1.994-13.778,4.804-20.142,8.371l-4.683-4.679c-5.553-5.293-14.285-5.29-19.833,0.009l-16.358,16.358     c-5.475,5.482-5.475,14.363,0,19.846l4.667,4.671c-3.564,6.367-6.375,13.128-8.375,20.145h-6.575     c-7.747,0.008-14.025,6.286-14.033,14.033v3.033h-68.699C216.92,43.535,167.071-1.47,108.051,0.037     C49.032,1.543,1.543,49.032,0.037,108.051c-1.506,59.02,43.498,108.869,102.364,113.384v128.432     c0.015,14.132,11.468,25.585,25.6,25.6h25.6c4.713,0,8.533-3.82,8.533-8.533s-3.821-8.533-8.533-8.533h-25.6     c-4.711-0.005-8.529-3.822-8.533-8.533V221.435c54.452-4.262,97.706-47.516,101.968-101.968h68.699v3.033     c0.008,7.747,6.286,14.026,14.033,14.033h6.575c2,7.018,4.811,13.778,8.375,20.146l-4.667,4.671     c-5.475,5.482-5.475,14.363,0,19.846l16.35,16.354c5.551,5.31,14.297,5.311,19.85,0.004l4.675-4.671     c6.363,3.569,13.124,6.378,20.142,8.371v6.579c0.008,7.747,6.286,14.026,14.033,14.033h3.033v128     c-0.005,4.711-3.822,8.529-8.533,8.533h-25.6c-4.713,0-8.533,3.82-8.533,8.533s3.82,8.533,8.533,8.533h25.6     c14.132-0.015,25.585-11.468,25.6-25.6v-128h3.033c7.747-0.008,14.026-6.286,14.033-14.033v-6.579     c7.018-1.992,13.779-4.802,20.142-8.371l4.683,4.679c5.553,5.293,14.285,5.29,19.833-0.009l16.358-16.358     c5.475-5.482,5.475-14.363,0-19.846l-4.667-4.671c3.564-6.367,6.375-13.128,8.375-20.146h6.575     c7.747-0.008,14.025-6.286,14.033-14.033V99.367C511.993,91.62,505.715,85.342,497.967,85.334z M110.934,204.801     c-51.841,0-93.867-42.026-93.867-93.867s42.026-93.867,93.867-93.867s93.867,42.026,93.867,93.867     C204.742,162.751,162.751,204.742,110.934,204.801z M494.934,119.467h-5.933c-6.409,0.038-11.982,4.406-13.55,10.621     c-1.8,6.981-4.58,13.671-8.258,19.871c-3.299,5.503-2.448,12.542,2.067,17.1l4.217,4.212l-12.075,12.071l-4.2-4.204     c-4.555-4.526-11.602-5.383-17.108-2.079c-6.196,3.677-12.882,6.457-19.858,8.258c-6.225,1.558-10.602,7.137-10.634,13.554v5.929     h-17.067v-5.929c-0.03-6.414-4.404-11.991-10.625-13.55c-6.976-1.802-13.662-4.582-19.858-8.258     c-5.503-3.312-12.553-2.461-17.108,2.067l-4.208,4.213l-12.075-12.071l4.217-4.212c4.515-4.558,5.365-11.597,2.067-17.1     c-3.679-6.201-6.459-12.893-8.258-19.875c-1.57-6.213-7.142-10.579-13.55-10.617h-5.933v-17.067h5.933     c6.409-0.038,11.982-4.406,13.55-10.621c1.8-6.981,4.58-13.671,8.259-19.871c3.299-5.503,2.448-12.542-2.067-17.1l-4.217-4.213     l12.075-12.071l4.2,4.204c4.554,4.528,11.602,5.385,17.108,2.079c6.196-3.677,12.882-6.457,19.858-8.258     c6.225-1.558,10.602-7.137,10.633-13.554v-5.929h17.067v5.929c0.03,6.414,4.404,11.991,10.625,13.55     c6.982,1.804,13.673,4.587,19.875,8.267c5.503,3.293,12.537,2.439,17.092-2.075l4.208-4.212l12.075,12.071l-4.217,4.213     c-4.515,4.558-5.365,11.597-2.067,17.1c3.679,6.201,6.459,12.893,8.258,19.875c1.57,6.213,7.142,10.579,13.55,10.617h5.933     V119.467z" fill="#727377"/>
			<circle cx="401.067" cy="110.934" r="8.533" fill="#727377"/>
			<path d="M110.934,34.134c-42.415,0-76.8,34.385-76.8,76.8s34.385,76.8,76.8,76.8s76.8-34.385,76.8-76.8     C187.686,68.538,153.33,34.182,110.934,34.134z M110.934,170.667c-32.99,0-59.733-26.744-59.733-59.733     s26.744-59.733,59.733-59.733s59.733,26.744,59.733,59.733C170.629,143.908,143.908,170.629,110.934,170.667z" fill="#727377"/>
			<path d="M119.467,107.401v-30.6c0-4.713-3.82-8.533-8.533-8.533s-8.533,3.82-8.533,8.533v34.133c0.001,2.263,0.9,4.433,2.5,6.033     l17.067,17.067c3.341,3.281,8.701,3.256,12.012-0.054s3.335-8.671,0.054-12.012L119.467,107.401z" fill="#727377"/>
			<path d="M264.534,264.534v-25.6c0-4.713-3.82-8.533-8.533-8.533s-8.533,3.82-8.533,8.533v25.6c0,4.713,3.82,8.533,8.533,8.533     S264.534,269.247,264.534,264.534z" fill="#727377"/>
			<path d="M185.801,302.767c2.944-0.789,5.244-3.089,6.033-6.033c0.789-2.944-0.053-6.086-2.208-8.242l-18.1-18.1     c-2.154-2.162-5.299-3.008-8.247-2.22c-2.948,0.788-5.251,3.091-6.039,6.039s0.058,6.093,2.22,8.247l18.1,18.1     C179.715,302.715,182.856,303.556,185.801,302.767z" fill="#727377"/>
			<path d="M326.201,302.767c2.944,0.789,6.086-0.053,8.242-2.208l18.1-18.1c1.601-1.6,2.5-3.77,2.5-6.033     c0-2.263-0.899-4.433-2.5-6.033c-1.6-1.601-3.77-2.5-6.033-2.5s-4.434,0.899-6.033,2.5l-18.1,18.1     c-2.155,2.156-2.997,5.297-2.208,8.242C320.956,299.679,323.256,301.978,326.201,302.767z" fill="#727377"/>
			<path d="M185.801,431.101c-2.944-0.789-6.086,0.053-8.242,2.208l-18.1,18.1c-1.601,1.6-2.5,3.77-2.5,6.033s0.899,4.433,2.5,6.033     c1.6,1.601,3.77,2.5,6.033,2.5c2.263,0,4.433-0.899,6.033-2.5l18.1-18.1c2.156-2.156,2.997-5.297,2.208-8.242     C191.045,434.19,188.745,431.89,185.801,431.101z" fill="#727377"/>
			<path d="M334.442,433.309c-1.6-1.601-3.77-2.5-6.033-2.5s-4.433,0.899-6.033,2.5c-1.601,1.6-2.5,3.77-2.5,6.033     s0.899,4.433,2.5,6.033l18.1,18.1c3.334,3.322,8.728,3.318,12.056-0.01c3.328-3.328,3.333-8.722,0.01-12.056L334.442,433.309z" fill="#727377"/>
		</g>
	</g>
</g>
<g>
</g>
<g>
</g>
<g>
</g>
<g>
</g>
<g>
</g>
<g>
</g>
<g>
</g>
<g>
</g>
<g>
</g>
<g>
</g>
<g>
</g>
<g>
</g>
<g>
</g>
<g>
</g>
<g>
</g>
</svg>
