<?xml version="1.0" encoding="UTF-8" standalone="no"?><!DOCTYPE svg PUBLIC "-//W3C//DTD SVG 1.1//EN" "http://www.w3.org/Graphics/SVG/1.1/DTD/svg11.dtd"><svg width="100%" height="100%" viewBox="0 0 11 15" version="1.1" xmlns="http://www.w3.org/2000/svg" xmlns:xlink="http://www.w3.org/1999/xlink" xml:space="preserve" xmlns:serif="http://www.serif.com/" style="fill-rule:evenodd;clip-rule:evenodd;stroke-linejoin:round;stroke-miterlimit:1.41421;"><path d="M5.345,0c-2.947,0 -5.345,2.398 -5.345,5.345c0,0.769 0.158,1.504 0.467,2.183c1.337,2.924 3.9,6.012 4.653,6.889c0.056,0.065 0.139,0.103 0.225,0.103c0.087,0 0.17,-0.038 0.226,-0.103c0.753,-0.877 3.316,-3.964 4.652,-6.889c0.311,-0.679 0.469,-1.414 0.469,-2.183c-0.001,-2.947 -2.399,-5.345 -5.347,-5.345Zm0,8.122c-1.531,0 -2.776,-1.246 -2.776,-2.777c0,-1.531 1.245,-2.776 2.776,-2.776c1.531,0 2.777,1.245 2.777,2.776c0,1.531 -1.246,2.777 -2.777,2.777Z" style="fill:#fff;fill-rule:nonzero;"/></svg>