<?xml version="1.0" encoding="UTF-8" standalone="no"?><!DOCTYPE svg PUBLIC "-//W3C//DTD SVG 1.1//EN" "http://www.w3.org/Graphics/SVG/1.1/DTD/svg11.dtd"><svg width="100%" height="100%" viewBox="0 0 12 12" version="1.1" xmlns="http://www.w3.org/2000/svg" xmlns:xlink="http://www.w3.org/1999/xlink" xml:space="preserve" xmlns:serif="http://www.serif.com/" style="fill-rule:evenodd;clip-rule:evenodd;stroke-linejoin:round;stroke-miterlimit:1.41421;"><path d="M11.556,10.573l-3.546,-3.564c0.513,-0.726 0.818,-1.611 0.818,-2.568c0,-2.454 -1.976,-4.441 -4.415,-4.441c-2.437,0 -4.413,1.987 -4.413,4.441c0,2.451 1.976,4.438 4.413,4.438c0.954,0 1.834,-0.307 2.554,-0.822l3.547,3.564c0.143,0.145 0.332,0.219 0.52,0.219c0.19,0 0.378,-0.074 0.522,-0.219c0.287,-0.289 0.287,-0.759 0,-1.048Zm-4.744,-4.422l-0.29,0.409l-0.407,0.29c-0.502,0.36 -1.089,0.549 -1.702,0.549c-1.622,0 -2.942,-1.327 -2.942,-2.958c0,-1.634 1.32,-2.962 2.942,-2.962c1.624,0 2.943,1.328 2.943,2.962c0.002,0.614 -0.188,1.204 -0.544,1.71Z" style="fill:#727377;"/></svg>