<?xml version="1.0" encoding="UTF-8" standalone="no"?><!DOCTYPE svg PUBLIC "-//W3C//DTD SVG 1.1//EN" "http://www.w3.org/Graphics/SVG/1.1/DTD/svg11.dtd"><svg width="100%" height="100%" viewBox="0 0 15 15" version="1.1" xmlns="http://www.w3.org/2000/svg" xmlns:xlink="http://www.w3.org/1999/xlink" xml:space="preserve" xmlns:serif="http://www.serif.com/" style="fill-rule:evenodd;clip-rule:evenodd;stroke-linejoin:round;stroke-miterlimit:1.41421;"><path d="M12.388,1.828c-1.322,-1.219 -2.967,-1.828 -4.931,-1.828c-2.065,0 -3.825,0.692 -5.277,2.079c-1.452,1.388 -2.18,3.112 -2.18,5.177c0,1.979 0.692,3.68 2.073,5.105c1.388,1.426 3.251,2.139 5.597,2.139c1.414,0 2.801,-0.29 4.162,-0.873c0.444,-0.189 0.66,-0.698 0.479,-1.144c-0.186,-0.462 -0.713,-0.675 -1.171,-0.479c-1.183,0.508 -2.343,0.763 -3.473,0.763c-1.798,0 -3.192,-0.548 -4.18,-1.645c-0.985,-1.094 -1.479,-2.381 -1.479,-3.857c0,-1.603 0.53,-2.94 1.586,-4.014c1.053,-1.071 2.352,-1.609 3.89,-1.609c1.417,0 2.615,0.44 3.591,1.322c0.976,0.881 1.464,1.991 1.464,3.328c0,0.914 -0.225,1.677 -0.672,2.283c-0.446,0.609 -0.911,0.911 -1.393,0.911c-0.26,0 -0.39,-0.139 -0.39,-0.42c0,-0.228 0.017,-0.494 0.05,-0.801l0.55,-4.499l-1.893,0l-0.121,0.44c-0.482,-0.393 -1.012,-0.591 -1.586,-0.591c-0.911,0 -1.692,0.364 -2.339,1.088c-0.651,0.725 -0.974,1.66 -0.974,2.801c0,1.116 0.287,2.018 0.864,2.701c0.577,0.686 1.269,1.027 2.08,1.027c0.724,0 1.343,-0.305 1.857,-0.912c0.388,0.583 0.959,0.873 1.713,0.873c1.109,0 2.067,-0.482 2.875,-1.449c0.808,-0.965 1.213,-2.13 1.213,-3.494c0,-1.727 -0.66,-3.203 -1.985,-4.422Zm-4.36,6.806c-0.334,0.45 -0.734,0.678 -1.198,0.678c-0.317,0 -0.571,-0.166 -0.763,-0.497c-0.195,-0.331 -0.293,-0.743 -0.293,-1.237c0,-0.609 0.136,-1.1 0.408,-1.473c0.272,-0.372 0.61,-0.562 1.012,-0.562c0.349,0 0.659,0.139 0.932,0.42c0.272,0.281 0.408,0.654 0.408,1.121c-0.003,0.583 -0.172,1.098 -0.506,1.55Z" style="fill:#727377;fill-rule:nonzero;"/></svg>